<svg width="336" height="61" viewBox="0 0 336 61" fill="none" xmlns="http://www.w3.org/2000/svg">
<path d="M6.776 40.384L6.968 30.336L24.824 13.824H34.424L19.256 29.056L15.032 32.576L6.776 40.384ZM0.248 48V0.511997H8.248V48H0.248ZM26.04 48L13.56 32.576L18.616 26.176L35.768 48H26.04ZM55.562 48.448C51.7647 48.448 48.4367 47.7013 45.578 46.208C42.762 44.672 40.5647 42.5813 38.986 39.936C37.45 37.2907 36.682 34.2827 36.682 30.912C36.682 27.4987 37.4287 24.4907 38.922 21.888C40.458 19.2427 42.5487 17.1733 45.194 15.68C47.882 14.1867 50.9327 13.44 54.346 13.44C57.674 13.44 60.6393 14.1653 63.242 15.616C65.8447 17.0667 67.8927 19.1147 69.386 21.76C70.8793 24.4053 71.626 27.52 71.626 31.104C71.626 31.4453 71.6047 31.8293 71.562 32.256C71.562 32.6827 71.5407 33.088 71.498 33.472H43.018V28.16H67.274L64.138 29.824C64.1807 27.8613 63.7753 26.1333 62.922 24.64C62.0687 23.1467 60.8953 21.9733 59.402 21.12C57.9513 20.2667 56.266 19.84 54.346 19.84C52.3833 19.84 50.6553 20.2667 49.162 21.12C47.7113 21.9733 46.5593 23.168 45.706 24.704C44.8953 26.1973 44.49 27.968 44.49 30.016V31.296C44.49 33.344 44.9593 35.1573 45.898 36.736C46.8367 38.3147 48.1593 39.5307 49.866 40.384C51.5727 41.2373 53.5353 41.664 55.754 41.664C57.674 41.664 59.402 41.3653 60.938 40.768C62.474 40.1707 63.8393 39.232 65.034 37.952L69.322 42.88C67.786 44.672 65.8447 46.0587 63.498 47.04C61.194 47.9787 58.5487 48.448 55.562 48.448ZM81.5015 60.864C79.8375 60.864 78.1735 60.5867 76.5095 60.032C74.8455 59.4773 73.4588 58.7093 72.3495 57.728L75.5495 51.84C76.3602 52.5653 77.2775 53.1413 78.3015 53.568C79.3255 53.9947 80.3708 54.208 81.4375 54.208C82.8882 54.208 84.0615 53.8453 84.9575 53.12C85.8535 52.3947 86.6855 51.1787 87.4535 49.472L89.4375 44.992L90.0775 44.032L103.006 13.824H110.686L94.6855 50.752C93.6188 53.312 92.4242 55.3387 91.1015 56.832C89.8215 58.3253 88.3708 59.3707 86.7495 59.968C85.1708 60.5653 83.4215 60.864 81.5015 60.864ZM88.5415 49.216L73.1175 13.824H81.4375L93.9815 43.328L88.5415 49.216Z" fill="#3168D8"/>
<path d="M126.246 48.448C123.387 48.448 120.635 48.0853 117.99 47.36C115.387 46.592 113.318 45.6747 111.782 44.608L114.854 38.528C116.39 39.5093 118.224 40.32 120.358 40.96C122.491 41.6 124.624 41.92 126.758 41.92C129.275 41.92 131.088 41.5787 132.198 40.896C133.35 40.2133 133.926 39.296 133.926 38.144C133.926 37.2053 133.542 36.5013 132.774 36.032C132.006 35.52 131.003 35.136 129.766 34.88C128.528 34.624 127.142 34.3893 125.606 34.176C124.112 33.9627 122.598 33.6853 121.062 33.344C119.568 32.96 118.203 32.4267 116.966 31.744C115.728 31.0187 114.726 30.0587 113.958 28.864C113.19 27.6693 112.806 26.0907 112.806 24.128C112.806 21.952 113.424 20.0747 114.661 18.496C115.899 16.8747 117.627 15.6373 119.845 14.784C122.107 13.888 124.774 13.44 127.846 13.44C130.15 13.44 132.475 13.696 134.822 14.208C137.168 14.72 139.11 15.4453 140.646 16.384L137.574 22.464C135.952 21.4827 134.31 20.8213 132.646 20.48C131.024 20.096 129.403 19.904 127.782 19.904C125.35 19.904 123.536 20.2667 122.342 20.992C121.19 21.7173 120.614 22.6347 120.614 23.744C120.614 24.768 120.998 25.536 121.766 26.048C122.534 26.56 123.536 26.9653 124.774 27.264C126.011 27.5627 127.376 27.8187 128.87 28.032C130.406 28.2027 131.92 28.48 133.414 28.864C134.907 29.248 136.272 29.7813 137.51 30.464C138.79 31.104 139.814 32.0213 140.582 33.216C141.35 34.4107 141.734 35.968 141.734 37.888C141.734 40.0213 141.094 41.8773 139.814 43.456C138.576 45.0347 136.806 46.272 134.502 47.168C132.198 48.0213 129.446 48.448 126.246 48.448ZM164.687 48.448C160.89 48.448 157.562 47.7013 154.703 46.208C151.887 44.672 149.69 42.5813 148.111 39.936C146.575 37.2907 145.807 34.2827 145.807 30.912C145.807 27.4987 146.554 24.4907 148.047 21.888C149.583 19.2427 151.674 17.1733 154.319 15.68C157.007 14.1867 160.058 13.44 163.471 13.44C166.799 13.44 169.764 14.1653 172.367 15.616C174.97 17.0667 177.018 19.1147 178.511 21.76C180.004 24.4053 180.751 27.52 180.751 31.104C180.751 31.4453 180.73 31.8293 180.687 32.256C180.687 32.6827 180.666 33.088 180.623 33.472H152.143V28.16H176.399L173.263 29.824C173.306 27.8613 172.9 26.1333 172.047 24.64C171.194 23.1467 170.02 21.9733 168.527 21.12C167.076 20.2667 165.391 19.84 163.471 19.84C161.508 19.84 159.78 20.2667 158.287 21.12C156.836 21.9733 155.684 23.168 154.831 24.704C154.02 26.1973 153.615 27.968 153.615 30.016V31.296C153.615 33.344 154.084 35.1573 155.023 36.736C155.962 38.3147 157.284 39.5307 158.991 40.384C160.698 41.2373 162.66 41.664 164.879 41.664C166.799 41.664 168.527 41.3653 170.063 40.768C171.599 40.1707 172.964 39.232 174.159 37.952L178.447 42.88C176.911 44.672 174.97 46.0587 172.623 47.04C170.319 47.9787 167.674 48.448 164.687 48.448ZM207.828 13.44C210.558 13.44 212.99 13.9733 215.124 15.04C217.3 16.1067 219.006 17.7493 220.244 19.968C221.481 22.144 222.1 24.96 222.1 28.416V48H214.1V29.44C214.1 26.4107 213.374 24.1493 211.924 22.656C210.516 21.1627 208.532 20.416 205.972 20.416C204.094 20.416 202.43 20.8 200.98 21.568C199.529 22.336 198.398 23.488 197.588 25.024C196.82 26.5173 196.436 28.416 196.436 30.72V48H188.436V13.824H196.052V23.04L194.708 20.224C195.902 18.048 197.63 16.384 199.892 15.232C202.196 14.0373 204.841 13.44 207.828 13.44ZM246.775 48.448C243.489 48.448 240.524 47.7227 237.879 46.272C235.276 44.7787 233.228 42.7307 231.735 40.128C230.241 37.5253 229.495 34.4533 229.495 30.912C229.495 27.3707 230.241 24.2987 231.735 21.696C233.228 19.0933 235.276 17.0667 237.879 15.616C240.524 14.1653 243.489 13.44 246.775 13.44C249.633 13.44 252.193 14.08 254.455 15.36C256.716 16.5973 258.508 18.496 259.831 21.056C261.153 23.616 261.815 26.9013 261.815 30.912C261.815 34.88 261.175 38.1653 259.895 40.768C258.615 43.328 256.844 45.248 254.583 46.528C252.321 47.808 249.719 48.448 246.775 48.448ZM247.735 41.6C249.655 41.6 251.361 41.1733 252.855 40.32C254.391 39.4667 255.607 38.2293 256.503 36.608C257.441 34.9867 257.911 33.088 257.911 30.912C257.911 28.6933 257.441 26.7947 256.503 25.216C255.607 23.5947 254.391 22.3573 252.855 21.504C251.361 20.6507 249.655 20.224 247.735 20.224C245.815 20.224 244.087 20.6507 242.551 21.504C241.057 22.3573 239.841 23.5947 238.903 25.216C238.007 26.7947 237.559 28.6933 237.559 30.912C237.559 33.088 238.007 34.9867 238.903 36.608C239.841 38.2293 241.057 39.4667 242.551 40.32C244.087 41.1733 245.815 41.6 247.735 41.6ZM258.103 48V39.936L258.423 30.848L257.783 21.76V0.511997H265.719V48H258.103ZM292.312 48.448C288.515 48.448 285.187 47.7013 282.328 46.208C279.512 44.672 277.315 42.5813 275.736 39.936C274.2 37.2907 273.432 34.2827 273.432 30.912C273.432 27.4987 274.179 24.4907 275.672 21.888C277.208 19.2427 279.299 17.1733 281.944 15.68C284.632 14.1867 287.683 13.44 291.096 13.44C294.424 13.44 297.389 14.1653 299.992 15.616C302.595 17.0667 304.643 19.1147 306.136 21.76C307.629 24.4053 308.376 27.52 308.376 31.104C308.376 31.4453 308.355 31.8293 308.312 32.256C308.312 32.6827 308.291 33.088 308.248 33.472H279.768V28.16H304.024L300.888 29.824C300.931 27.8613 300.525 26.1333 299.672 24.64C298.819 23.1467 297.645 21.9733 296.152 21.12C294.701 20.2667 293.016 19.84 291.096 19.84C289.133 19.84 287.405 20.2667 285.912 21.12C284.461 21.9733 283.309 23.168 282.456 24.704C281.645 26.1973 281.24 27.968 281.24 30.016V31.296C281.24 33.344 281.709 35.1573 282.648 36.736C283.587 38.3147 284.909 39.5307 286.616 40.384C288.323 41.2373 290.285 41.664 292.504 41.664C294.424 41.664 296.152 41.3653 297.688 40.768C299.224 40.1707 300.589 39.232 301.784 37.952L306.072 42.88C304.536 44.672 302.595 46.0587 300.248 47.04C297.944 47.9787 295.299 48.448 292.312 48.448ZM316.061 48V13.824H323.677V23.232L322.781 20.48C323.805 18.176 325.405 16.4267 327.581 15.232C329.799 14.0373 332.551 13.44 335.837 13.44V21.056C335.495 20.9707 335.175 20.928 334.877 20.928C334.578 20.8853 334.279 20.864 333.981 20.864C330.951 20.864 328.541 21.76 326.749 23.552C324.957 25.3013 324.061 27.9253 324.061 31.424V48H316.061Z" fill="black"/>
</svg>
