<svg width="336" height="61" viewBox="0 0 336 61" fill="none" xmlns="http://www.w3.org/2000/svg">
<path d="M6.776 40.384L6.968 30.336L24.824 13.824H34.424L19.256 29.056L15.032 32.576L6.776 40.384ZM0.248 48V0.511997H8.248V48H0.248ZM26.04 48L13.56 32.576L18.616 26.176L35.768 48H26.04ZM55.6245 48.448C51.8272 48.448 48.4992 47.7013 45.6405 46.208C42.8245 44.672 40.6272 42.5813 39.0485 39.936C37.5125 37.2907 36.7445 34.2827 36.7445 30.912C36.7445 27.4987 37.4912 24.4907 38.9845 21.888C40.5205 19.2427 42.6112 17.1733 45.2565 15.68C47.9445 14.1867 50.9952 13.44 54.4085 13.44C57.7365 13.44 60.7018 14.1653 63.3045 15.616C65.9072 17.0667 67.9552 19.1147 69.4485 21.76C70.9418 24.4053 71.6885 27.52 71.6885 31.104C71.6885 31.4453 71.6672 31.8293 71.6245 32.256C71.6245 32.6827 71.6032 33.088 71.5605 33.472H43.0805V28.16H67.3365L64.2005 29.824C64.2432 27.8613 63.8378 26.1333 62.9845 24.64C62.1312 23.1467 60.9578 21.9733 59.4645 21.12C58.0138 20.2667 56.3285 19.84 54.4085 19.84C52.4458 19.84 50.7178 20.2667 49.2245 21.12C47.7738 21.9733 46.6218 23.168 45.7685 24.704C44.9578 26.1973 44.5525 27.968 44.5525 30.016V31.296C44.5525 33.344 45.0218 35.1573 45.9605 36.736C46.8992 38.3147 48.2218 39.5307 49.9285 40.384C51.6352 41.2373 53.5978 41.664 55.8165 41.664C57.7365 41.664 59.4645 41.3653 61.0005 40.768C62.5365 40.1707 63.9018 39.232 65.0965 37.952L69.3845 42.88C67.8485 44.672 65.9072 46.0587 63.5605 47.04C61.2565 47.9787 58.6112 48.448 55.6245 48.448ZM81.564 60.864C79.9 60.864 78.236 60.5867 76.572 60.032C74.908 59.4773 73.5213 58.7093 72.412 57.728L75.612 51.84C76.4227 52.5653 77.34 53.1413 78.364 53.568C79.388 53.9947 80.4333 54.208 81.5 54.208C82.9507 54.208 84.124 53.8453 85.02 53.12C85.916 52.3947 86.748 51.1787 87.516 49.472L89.5 44.992L90.14 44.032L103.068 13.824H110.748L94.748 50.752C93.6813 53.312 92.4867 55.3387 91.164 56.832C89.884 58.3253 88.4333 59.3707 86.812 59.968C85.2333 60.5653 83.484 60.864 81.564 60.864ZM88.604 49.216L73.18 13.824H81.5L94.044 43.328L88.604 49.216Z" fill="#3168D8"/>
<path d="M126.308 48.448C123.449 48.448 120.697 48.0853 118.052 47.36C115.449 46.592 113.38 45.6747 111.844 44.608L114.916 38.528C116.452 39.5093 118.287 40.32 120.42 40.96C122.553 41.6 124.687 41.92 126.82 41.92C129.337 41.92 131.151 41.5787 132.26 40.896C133.412 40.2133 133.988 39.296 133.988 38.144C133.988 37.2053 133.604 36.5013 132.836 36.032C132.068 35.52 131.065 35.136 129.828 34.88C128.591 34.624 127.204 34.3893 125.668 34.176C124.175 33.9627 122.66 33.6853 121.124 33.344C119.631 32.96 118.265 32.4267 117.028 31.744C115.791 31.0187 114.788 30.0587 114.02 28.864C113.252 27.6693 112.868 26.0907 112.868 24.128C112.868 21.952 113.487 20.0747 114.724 18.496C115.961 16.8747 117.689 15.6373 119.908 14.784C122.169 13.888 124.836 13.44 127.908 13.44C130.212 13.44 132.537 13.696 134.884 14.208C137.231 14.72 139.172 15.4453 140.708 16.384L137.636 22.464C136.015 21.4827 134.372 20.8213 132.708 20.48C131.087 20.096 129.465 19.904 127.844 19.904C125.412 19.904 123.599 20.2667 122.404 20.992C121.252 21.7173 120.676 22.6347 120.676 23.744C120.676 24.768 121.06 25.536 121.828 26.048C122.596 26.56 123.599 26.9653 124.836 27.264C126.073 27.5627 127.439 27.8187 128.932 28.032C130.468 28.2027 131.983 28.48 133.476 28.864C134.969 29.248 136.335 29.7813 137.572 30.464C138.852 31.104 139.876 32.0213 140.644 33.216C141.412 34.4107 141.796 35.968 141.796 37.888C141.796 40.0213 141.156 41.8773 139.876 43.456C138.639 45.0347 136.868 46.272 134.564 47.168C132.26 48.0213 129.508 48.448 126.308 48.448ZM164.75 48.448C160.952 48.448 157.624 47.7013 154.766 46.208C151.95 44.672 149.752 42.5813 148.174 39.936C146.638 37.2907 145.87 34.2827 145.87 30.912C145.87 27.4987 146.616 24.4907 148.11 21.888C149.646 19.2427 151.736 17.1733 154.382 15.68C157.07 14.1867 160.12 13.44 163.534 13.44C166.862 13.44 169.827 14.1653 172.43 15.616C175.032 17.0667 177.08 19.1147 178.574 21.76C180.067 24.4053 180.814 27.52 180.814 31.104C180.814 31.4453 180.792 31.8293 180.75 32.256C180.75 32.6827 180.728 33.088 180.686 33.472H152.206V28.16H176.462L173.326 29.824C173.368 27.8613 172.963 26.1333 172.11 24.64C171.256 23.1467 170.083 21.9733 168.59 21.12C167.139 20.2667 165.454 19.84 163.534 19.84C161.571 19.84 159.843 20.2667 158.35 21.12C156.899 21.9733 155.747 23.168 154.894 24.704C154.083 26.1973 153.678 27.968 153.678 30.016V31.296C153.678 33.344 154.147 35.1573 155.086 36.736C156.024 38.3147 157.347 39.5307 159.054 40.384C160.76 41.2373 162.723 41.664 164.942 41.664C166.862 41.664 168.59 41.3653 170.126 40.768C171.662 40.1707 173.027 39.232 174.222 37.952L178.51 42.88C176.974 44.672 175.032 46.0587 172.686 47.04C170.382 47.9787 167.736 48.448 164.75 48.448ZM207.89 13.44C210.621 13.44 213.053 13.9733 215.186 15.04C217.362 16.1067 219.069 17.7493 220.306 19.968C221.543 22.144 222.162 24.96 222.162 28.416V48H214.162V29.44C214.162 26.4107 213.437 24.1493 211.986 22.656C210.578 21.1627 208.594 20.416 206.034 20.416C204.157 20.416 202.493 20.8 201.042 21.568C199.591 22.336 198.461 23.488 197.65 25.024C196.882 26.5173 196.498 28.416 196.498 30.72V48H188.498V13.824H196.114V23.04L194.77 20.224C195.965 18.048 197.693 16.384 199.954 15.232C202.258 14.0373 204.903 13.44 207.89 13.44ZM246.837 48.448C243.552 48.448 240.586 47.7227 237.941 46.272C235.338 44.7787 233.29 42.7307 231.797 40.128C230.304 37.5253 229.557 34.4533 229.557 30.912C229.557 27.3707 230.304 24.2987 231.797 21.696C233.29 19.0933 235.338 17.0667 237.941 15.616C240.586 14.1653 243.552 13.44 246.837 13.44C249.696 13.44 252.256 14.08 254.517 15.36C256.778 16.5973 258.57 18.496 259.893 21.056C261.216 23.616 261.877 26.9013 261.877 30.912C261.877 34.88 261.237 38.1653 259.957 40.768C258.677 43.328 256.906 45.248 254.645 46.528C252.384 47.808 249.781 48.448 246.837 48.448ZM247.797 41.6C249.717 41.6 251.424 41.1733 252.917 40.32C254.453 39.4667 255.669 38.2293 256.565 36.608C257.504 34.9867 257.973 33.088 257.973 30.912C257.973 28.6933 257.504 26.7947 256.565 25.216C255.669 23.5947 254.453 22.3573 252.917 21.504C251.424 20.6507 249.717 20.224 247.797 20.224C245.877 20.224 244.149 20.6507 242.613 21.504C241.12 22.3573 239.904 23.5947 238.965 25.216C238.069 26.7947 237.621 28.6933 237.621 30.912C237.621 33.088 238.069 34.9867 238.965 36.608C239.904 38.2293 241.12 39.4667 242.613 40.32C244.149 41.1733 245.877 41.6 247.797 41.6ZM258.165 48V39.936L258.485 30.848L257.845 21.76V0.511997H265.781V48H258.165ZM292.375 48.448C288.577 48.448 285.249 47.7013 282.391 46.208C279.575 44.672 277.377 42.5813 275.799 39.936C274.263 37.2907 273.495 34.2827 273.495 30.912C273.495 27.4987 274.241 24.4907 275.735 21.888C277.271 19.2427 279.361 17.1733 282.007 15.68C284.695 14.1867 287.745 13.44 291.159 13.44C294.487 13.44 297.452 14.1653 300.055 15.616C302.657 17.0667 304.705 19.1147 306.199 21.76C307.692 24.4053 308.439 27.52 308.439 31.104C308.439 31.4453 308.417 31.8293 308.375 32.256C308.375 32.6827 308.353 33.088 308.311 33.472H279.831V28.16H304.087L300.951 29.824C300.993 27.8613 300.588 26.1333 299.735 24.64C298.881 23.1467 297.708 21.9733 296.215 21.12C294.764 20.2667 293.079 19.84 291.159 19.84C289.196 19.84 287.468 20.2667 285.975 21.12C284.524 21.9733 283.372 23.168 282.519 24.704C281.708 26.1973 281.303 27.968 281.303 30.016V31.296C281.303 33.344 281.772 35.1573 282.711 36.736C283.649 38.3147 284.972 39.5307 286.679 40.384C288.385 41.2373 290.348 41.664 292.567 41.664C294.487 41.664 296.215 41.3653 297.751 40.768C299.287 40.1707 300.652 39.232 301.847 37.952L306.135 42.88C304.599 44.672 302.657 46.0587 300.311 47.04C298.007 47.9787 295.361 48.448 292.375 48.448ZM316.123 48V13.824H323.739V23.232L322.843 20.48C323.867 18.176 325.467 16.4267 327.643 15.232C329.862 14.0373 332.614 13.44 335.899 13.44V21.056C335.558 20.9707 335.238 20.928 334.939 20.928C334.64 20.8853 334.342 20.864 334.043 20.864C331.014 20.864 328.603 21.76 326.811 23.552C325.019 25.3013 324.123 27.9253 324.123 31.424V48H316.123Z" fill="black"/>
</svg>
